<svg role="img" viewBox="0 0 24 24" xmlns="http://www.w3.org/2000/svg"><title>Arista Networks</title><path d="M8.407 12.344c0.799 0 1.198-0.554 1.197-1.109 0-0.554-0.399-1.087-1.242-1.087-0.621-0.022-2.906-0.022-2.905-0.022v3.748h0.709V10.725c0.555 0 1.952 0 2.241 0 0.399 0 0.599 0.133 0.598 0.51 0 0.311-0.2 0.488-0.576 0.488h-1.863l2.218 2.129h0.865l-1.597-1.553C8.207 12.344 8.384 12.344 8.407 12.344zM10.336 10.126H11.024V13.874H10.336ZM19.741 10.702L19.741 10.126 18.277 10.126 17.59 10.126 16.37 10.126 15.97 10.702 17.59 10.702 17.59 13.874 18.277 13.874 18.277 10.702ZM14.617 11.678c-0.355 0-1.242 0-1.752 0-0.355 0-0.555-0.155-0.554-0.465 0-0.355 0.244-0.51 0.554-0.511 0.488 0 2.396 0 2.396 0l0.31-0.576c0 0-2.329 0-2.728 0-0.621 0-1.131 0.466-1.131 1.109 0 0.577 0.488 1.042 1.153 1.042 0.377 0 1.508 0 1.752 0 0.399 0 0.621 0.178 0.621 0.51 0 0.288-0.244 0.488-0.621 0.488H12.2l-0.355 0.599c0 0 2.129 0 2.861 0 0.732 0 1.131-0.532 1.131-1.131C15.837 12.189 15.372 11.678 14.617 11.678zM2.218 10.37C2.063 10.614 0 13.874 0 13.874h0.732l0.688-1.109h1.464l0.377-0.599H1.797l0.798-1.286 1.863 2.972h0.732c0 0-2.041-3.216-2.218-3.505C2.773 10.059 2.418 10.081 2.218 10.37zM23.268 13.874h0.732c0 0-2.041-3.216-2.218-3.504-0.2-0.333-0.555-0.311-0.754-0.022-0.155 0.244-2.218 3.505-2.218 3.504h0.731l0.688-1.109h1.486l0.377-0.599h-1.464l0.799-1.286L23.268 13.874z"/></svg>
